<?xml version="1.0" ?><svg id="Layer_1_1_" style="enable-background:new 0 0 64 64;" version="1.1" viewBox="0 0 64 64" xml:space="preserve" xmlns="http://www.w3.org/2000/svg" xmlns:xlink="http://www.w3.org/1999/xlink"><g><g><path d="M58,54L58,54c-1.175,4.702-5.4,8-10.246,8H16.246C11.4,62,7.175,58.702,6,54l0,0H58z" style="fill:#E6E9ED;"/><path d="M6.729,56h50.542c0.303-0.633,0.554-1.298,0.729-2H6C6.175,54.702,6.426,55.367,6.729,56z" style="fill:#CCD1D9;"/><path d="M60,50H4c-1.105,0-2,0.895-2,2v0c0,1.105,0.895,2,2,2h56c1.105,0,2-0.895,2-2v0    C62,50.895,61.105,50,60,50z" style="fill:#E6E9ED;"/><path d="M60,50c0,0-1.257-2.793-3.822-6.291L48,37l-8-6l-12.288-0.65c-2.229,0.37-4.297,1.015-6.204,1.853    L9.103,42.048C5.674,46.279,4,50,4,50H60z" style="fill:#ECC19C;"/><path d="M56.178,43.709L48,37l-4.309-3.232C42.631,35.245,42,37.048,42,39c0,4.963,4.037,9,9,9    c2.472,0,4.714-1.003,6.342-2.622C56.989,44.847,56.603,44.289,56.178,43.709z" style="fill:#CF9E76;"/><path d="M27.712,30.35c-1.138,0.189-2.232,0.451-3.285,0.772C26.672,32.339,29.272,33,31.974,33h3.09    l3.584,4.3c0.9,1.08,2.223,1.7,3.628,1.7c1.996,0,3.698-1.248,4.388-3.002L40,31L27.712,30.35z" style="fill:#CF9E76;"/><path d="M45,28.276v-0.447C45,26.266,43.734,25,42.172,25c-0.75,0-1.47,0.298-2,0.828l-4.005,4.005    c-2.191-1.476-5.728-4.152-7.057-6.834c-1.982-4-2.154-8-7.109-8c-2.123,0-2.982,1.204-3,4.038    c-0.018,2.977,1.267,5.794,3.289,7.953C24.771,29.642,28.341,31,31.973,31H36l4.183,5.02c0.518,0.621,1.284,0.98,2.093,0.98    C43.78,37,45,35.78,45,34.276v-0.552C45,32.22,43.78,31,42.276,31C43.78,31,45,29.78,45,28.276z" style="fill:#FC6E51;"/><path d="M29.109,23c-0.49-0.988-0.869-1.976-1.237-2.904L27.2,20.6C25.123,22.158,22.596,23,20,23h-0.239    c0.573,1.468,1.438,2.827,2.528,3.991c0.74,0.79,1.584,1.45,2.49,2.009H25l0.502-0.126c2.174-0.544,4.246-1.435,6.135-2.638    l0.004-0.003C30.588,25.211,29.657,24.107,29.109,23z" style="fill:#E9573F;"/><circle cx="51" cy="39" r="7" style="fill:#FCD770;"/><path d="M9.103,42.047c-0.463,0.571-0.891,1.132-1.29,1.677C9.623,46.305,12.615,48,16,48    c5.514,0,10-4.486,10-10c0-2.517-0.942-4.813-2.482-6.573c-0.686,0.237-1.36,0.49-2.009,0.775L9.103,42.047z" style="fill:#CF9E76;"/><circle cx="16" cy="38" r="8" style="fill:#FCD770;"/><circle cx="16" cy="38" r="4" style="fill:#B4DD7F;"/><path d="M51,42L51,42c-1.65,0-3-1.35-3-3v0c0-1.65,1.35-3,3-3h0c1.65,0,3,1.35,3,3v0    C54,40.65,52.65,42,51,42z" style="fill:#FFEAA7;"/><path d="M4,50h56c0,0-0.348-0.769-1.044-2H5.044C4.348,49.23,4,50,4,50z" style="fill:#DFB28B;"/></g><g><path d="M60.668,49.081c-0.447-0.9-1.513-2.908-3.237-5.343C58.412,42.41,59,40.774,59,39c0-4.411-3.589-8-8-8    c-1.942,0-3.724,0.697-5.112,1.853c-0.174-0.72-0.55-1.363-1.076-1.853C45.543,30.32,46,29.35,46,28.276v-0.447    C46,25.717,44.282,24,42.172,24c-1.023,0-1.984,0.398-2.707,1.122l-3.417,3.417c-2.096-1.471-4.939-3.754-6.043-5.982    c-0.421-0.848-0.76-1.707-1.088-2.537C27.747,17.06,26.538,14,22,14c-3.969,0-3.992,3.787-4,5.032    c-0.019,3.104,1.246,6.173,3.56,8.643c0.874,0.934,1.898,1.72,3.016,2.367c-0.971,0.278-1.928,0.616-2.871,1.003    C20.151,29.768,18.164,29,16,29c-4.963,0-9,4.038-9,9c0,1.412,0.336,2.743,0.918,3.934c-2.524,3.211-4.032,6.031-4.586,7.147    C1.999,49.386,1,50.576,1,52c0,1.654,1.346,3,3,3h1.254c1.534,4.746,5.943,8,10.992,8h31.508c5.049,0,9.458-3.254,10.992-8H60    c1.654,0,3-1.346,3-3C63,50.576,62.001,49.386,60.668,49.081z M51,33c3.309,0,6,2.691,6,6s-2.691,6-6,6s-6-2.691-6-6    S47.691,33,51,33z M41.724,32h0.553C43.227,32,44,32.773,44,33.724v0.552C44,35.227,43.227,36,42.275,36    c-0.513,0-0.995-0.226-1.323-0.62L38.135,32H41.724z M40.879,26.535C41.22,26.195,41.69,26,42.172,26C43.18,26,44,26.82,44,27.829    v0.447C44,29.227,43.227,30,42.276,30h-4.001c-0.129-0.078-0.305-0.187-0.532-0.33L40.879,26.535z M27.658,29.264    c1.337-0.468,2.619-1.072,3.843-1.792c1.049,0.958,2.161,1.827,3.143,2.529h-2.671C30.468,30,29.012,29.736,27.658,29.264z M22,16    c2.707,0,3.597,1.23,4.654,3.76l-0.053,0.04c-1.772,1.328-3.941,2.089-6.15,2.181c-0.301-0.96-0.456-1.948-0.45-2.937    C20.018,16.224,20.878,16,22,16z M21.289,23.927c2.194-0.222,4.32-1.007,6.134-2.267c0.238,0.585,0.489,1.177,0.789,1.784    c0.434,0.875,1.082,1.74,1.827,2.566c-1.505,0.833-3.105,1.475-4.78,1.894l-0.253,0.063c-0.727-0.479-1.399-1.03-1.989-1.66    C22.326,25.568,21.751,24.766,21.289,23.927z M22.92,37h-2.021C20.5,35.044,18.956,33.5,17,33.101V31.08    C20.059,31.521,22.479,33.941,22.92,37z M11.101,39c0.399,1.956,1.943,3.5,3.899,3.899v2.021c-3.059-0.441-5.479-2.861-5.92-5.92    H11.101z M16,35c1.654,0,3,1.346,3,3s-1.346,3-3,3s-3-1.346-3-3S14.346,35,16,35z M17,42.899c1.956-0.399,3.5-1.943,3.899-3.899    h2.021c-0.441,3.059-2.861,5.479-5.92,5.92V42.899z M15,31.08v2.021C13.044,33.5,11.5,35.044,11.101,37H9.08    C9.521,33.941,11.941,31.521,15,31.08z M16,47c4.963,0,9-4.038,9-9c0-2.025-0.681-3.89-1.814-5.396    c1.462-0.55,2.963-0.961,4.48-1.226C29.037,31.783,30.488,32,31.974,32h3.558l3.884,4.66c0.71,0.852,1.753,1.34,2.861,1.34    c0.278,0,0.547-0.036,0.807-0.094C43.034,38.265,43,38.628,43,39c0,4.411,3.589,8,8,8c1.902,0,3.649-0.67,5.023-1.782    c1.05,1.514,1.834,2.847,2.344,3.782H5.633c0.671-1.231,1.816-3.151,3.428-5.274C10.713,45.724,13.21,47,16,47z M47.754,61H16.246    c-3.953,0-7.429-2.413-8.866-6h49.24C55.183,58.587,51.707,61,47.754,61z M60,53H4c-0.552,0-1-0.449-1-1s0.448-1,1-1h56    c0.552,0,1,0.449,1,1S60.552,53,60,53z"/><path d="M51,43c2.206,0,4-1.794,4-4h-2c0,1.103-0.897,2-2,2s-2-0.897-2-2s0.897-2,2-2v-2c-2.206,0-4,1.794-4,4S48.794,43,51,43z"/><path d="M30,15h2c0-0.796,0.302-1.148,0.759-1.681C33.312,12.674,34,11.872,34,10.335c0-1.537-0.688-2.34-1.241-2.985    C32.302,6.817,32,6.465,32,5.668c0-0.797,0.302-1.15,0.76-1.683C33.312,3.34,34,2.537,34,1h-2c0,0.797-0.302,1.15-0.76,1.683    C30.688,3.328,30,4.131,30,5.668s0.688,2.339,1.24,2.984C31.698,9.186,32,9.538,32,10.335c0,0.796-0.302,1.148-0.759,1.682    C30.688,12.662,30,13.464,30,15z"/><path d="M38,20h2c0-0.796,0.302-1.148,0.759-1.681C41.312,17.674,42,16.872,42,15.335c0-1.537-0.688-2.34-1.241-2.985    C40.302,11.817,40,11.465,40,10.668c0-0.797,0.302-1.15,0.76-1.683C41.312,8.34,42,7.537,42,6h-2c0,0.797-0.302,1.15-0.76,1.683    C38.688,8.328,38,9.131,38,10.668s0.688,2.339,1.24,2.984c0.458,0.533,0.76,0.886,0.76,1.683c0,0.796-0.302,1.148-0.759,1.682    C38.688,17.662,38,18.464,38,20z"/><path d="M47,18h2c0-0.796,0.302-1.148,0.759-1.681C50.312,15.674,51,14.872,51,13.335c0-1.537-0.688-2.34-1.241-2.985    C49.302,9.817,49,9.465,49,8.668c0-0.797,0.302-1.15,0.76-1.683C50.312,6.34,51,5.537,51,4h-2c0,0.797-0.302,1.15-0.76,1.683    C47.688,6.328,47,7.131,47,8.668s0.688,2.339,1.24,2.984c0.458,0.533,0.76,0.886,0.76,1.683c0,0.796-0.302,1.148-0.759,1.682    C47.688,15.662,47,16.464,47,18z"/><rect height="2" width="2" x="30" y="45"/><rect height="2" width="2" x="32" y="39"/><rect height="2" width="2" x="27" y="34"/><rect height="2" width="2" x="38" y="45"/><rect height="2" width="2" x="36" y="41"/><rect height="2" width="2" x="27" y="41"/><rect height="2" width="2" x="32" y="35"/></g></g></svg>